# xmcd CD database file generated by OrangeCD 6.2
#
# Track frame offsets:
#	150
#	16277
#	31620
#
# Disc length: 650 seconds
#
# Revision: 0
# Processed by: cddbd v1.5.2PL0 Copyright (c) Steve Scherf et al.
# Submitted via: OrangeCD 6.2
#
DISCID=13028803
DTITLE=Teddybears Sthlm - Magic Finger
DYEAR=1996
DGENRE=
TTITLE0=Magic Finger
TTITLE1=When They Grow Up
TTITLE2=To The Swiftest Goes The meal
EXTD=
EXTT0=
EXTT1=
EXTT2=
PLAYORDER=
